<?xml version="1.0" standalone="no"?>
<!DOCTYPE svg PUBLIC "-//W3C//DTD SVG 20010904//EN"
 "http://www.w3.org/TR/2001/REC-SVG-20010904/DTD/svg10.dtd">
<svg version="1.0" xmlns="http://www.w3.org/2000/svg"
 width="132.000000pt" height="91.000000pt" viewBox="0 0 132.000000 91.000000"
 preserveAspectRatio="xMidYMid meet">
<metadata>
Created by potrace 1.10, written by Peter Selinger 2001-2011
</metadata>
<g transform="translate(0.000000,91.000000) scale(0.100000,-0.100000)"
fill="#000000" stroke="none">
<path d="M350 705 l0 -125 25 0 c25 0 25 0 25 100 l0 100 375 0 375 0 0 -275
0 -275 -275 0 -275 0 0 -25 0 -25 300 0 300 0 0 325 0 325 -425 0 -425 0 0
-125z"/>
<path d="M750 705 c0 -24 2 -25 75 -25 73 0 75 1 75 25 0 24 -2 25 -75 25 -73
0 -75 -1 -75 -25z"/>
<path d="M950 705 c0 -24 2 -25 75 -25 73 0 75 1 75 25 0 24 -2 25 -75 25 -73
0 -75 -1 -75 -25z"/>
<path d="M1050 605 c0 -20 -5 -25 -25 -25 -20 0 -25 -5 -25 -25 0 -20 -5 -25
-25 -25 -20 0 -25 -5 -25 -25 0 -20 -5 -25 -25 -25 -20 0 -25 -5 -25 -25 0
-20 -5 -25 -25 -25 -20 0 -25 -5 -25 -25 0 -20 -5 -25 -25 -25 -20 0 -25 5
-25 25 0 20 -5 25 -25 25 -20 0 -25 5 -25 25 0 23 -3 25 -50 25 -47 0 -50 -2
-50 -25 0 -20 5 -25 25 -25 20 0 25 -5 25 -25 0 -20 5 -25 25 -25 20 0 25 -5
25 -25 0 -20 5 -25 25 -25 20 0 25 -5 25 -25 0 -20 5 -25 25 -25 20 0 25 5 25
25 0 20 5 25 25 25 20 0 25 5 25 25 0 20 5 25 25 25 20 0 25 5 25 25 0 20 5
25 25 25 20 0 25 5 25 25 0 20 5 25 25 25 20 0 25 5 25 25 0 20 5 25 25 25 23
0 25 3 25 50 0 47 -2 50 -25 50 -20 0 -25 -5 -25 -25z"/>
<path d="M200 480 l0 -50 -50 0 -50 0 0 -125 0 -125 50 0 50 0 0 -50 0 -50
175 0 175 0 0 225 0 225 -175 0 -175 0 0 -50z m300 -175 l0 -175 -125 0 -125
0 0 175 0 175 125 0 125 0 0 -175z m-300 0 c0 -73 -1 -75 -25 -75 -24 0 -25 2
-25 75 0 73 1 75 25 75 24 0 25 -2 25 -75z"/>
</g>
</svg>
